HIERARCHY
ROOT joint_Root
{
	OFFSET 0.0 0.0 0.0
	CHANNELS 6 Xposition Yposition Zposition Zrotation Xrotation Yrotation 
	JOINT Hips
	{
		OFFSET -0.726466 93.3139 -2.00062
		CHANNELS 6 Xposition Yposition Zposition Zrotation Xrotation Yrotation 
		JOINT Spine
		{
			OFFSET 15.7357 0.0 0.0
			CHANNELS 6 Xposition Yposition Zposition Zrotation Xrotation Yrotation 
			JOINT Chest
			{
				OFFSET 8.98455 -0.406207 0.0
				CHANNELS 6 Xposition Yposition Zposition Zrotation Xrotation Yrotation 
				JOINT Neck
				{
					OFFSET 16.3773 0.0 0.0
					CHANNELS 6 Xposition Yposition Zposition Zrotation Xrotation Yrotation 
					JOINT Head
					{
						OFFSET 6.45672 0.0 0.0
						CHANNELS 6 Xposition Yposition Zposition Zrotation Xrotation Yrotation 
						End Site
						{
							OFFSET 0.0 0.0 0.0
						}
					}
				}
				JOINT Shoulder_L
				{
					OFFSET 12.9942 -0.242716 4.98039
					CHANNELS 6 Xposition Yposition Zposition Zrotation Xrotation Yrotation 
					JOINT UpperArm_L
					{
						OFFSET 5.34809 0.0 0.0
						CHANNELS 6 Xposition Yposition Zposition Zrotation Xrotation Yrotation 
						JOINT LowerArm_L
						{
							OFFSET 24.3286 1.87007e-05 0.0
							CHANNELS 6 Xposition Yposition Zposition Zrotation Xrotation Yrotation 
							JOINT Hand_L
							{
								OFFSET 22.2916 0.0 0.0
								CHANNELS 6 Xposition Yposition Zposition Zrotation Xrotation Yrotation 
								End Site
								{
									OFFSET 0.0 0.0 0.0
								}
							}
						}
					}
				}
				JOINT Shoulder_R
				{
					OFFSET 12.9945 -0.242716 -4.98039
					CHANNELS 6 Xposition Yposition Zposition Zrotation Xrotation Yrotation 
					JOINT UpperArm_R
					{
						OFFSET -5.34813 0.0 0.0
						CHANNELS 6 Xposition Yposition Zposition Zrotation Xrotation Yrotation 
						JOINT LowerArm_R
						{
							OFFSET -24.3289 0.000322201 0.0
							CHANNELS 6 Xposition Yposition Zposition Zrotation Xrotation Yrotation 
							JOINT Hand_R
							{
								OFFSET -22.2915 -0.000108084 0.0
								CHANNELS 6 Xposition Yposition Zposition Zrotation Xrotation Yrotation 
								End Site
								{
									OFFSET 0.0 0.0 0.0
								}
							}
						}
					}
				}
			}
		}
		JOINT UpperLeg_L
		{
			OFFSET -2.19248 -6.46944 0.0
			CHANNELS 6 Xposition Yposition Zposition Zrotation Xrotation Yrotation 
			JOINT LowerLeg_L
			{
				OFFSET 39.0811 0.0 -1.23785e-05
				CHANNELS 6 Xposition Yposition Zposition Zrotation Xrotation Yrotation 
				JOINT Foot_L
				{
					OFFSET 40.9854 0.0 -1.26872e-05
					CHANNELS 6 Xposition Yposition Zposition Zrotation Xrotation Yrotation 
					JOINT Toes_L
					{
						OFFSET 11.7543 0.0 0.0
						CHANNELS 6 Xposition Yposition Zposition Zrotation Xrotation Yrotation 
						End Site
						{
							OFFSET 0.0 0.0 0.0
						}
					}
				}
			}
		}
		JOINT UpperLeg_R
		{
			OFFSET -2.19251 6.46944 0.0
			CHANNELS 6 Xposition Yposition Zposition Zrotation Xrotation Yrotation 
			JOINT LowerLeg_R
			{
				OFFSET -39.0811 -0.00228153 -0.0401928
				CHANNELS 6 Xposition Yposition Zposition Zrotation Xrotation Yrotation 
				JOINT Foot_R
				{
					OFFSET -40.9854 0.0 0.0
					CHANNELS 6 Xposition Yposition Zposition Zrotation Xrotation Yrotation 
					JOINT Toes_R
					{
						OFFSET -11.7543 0.0 0.0
						CHANNELS 6 Xposition Yposition Zposition Zrotation Xrotation Yrotation 
						End Site
						{
							OFFSET 0.0 0.0 0.0
						}
					}
				}
			}
		}
	}
}
MOTION
Frames:	4
Frame Time:	0.0333333
0.000000 0.000000 0.000000 0.000000 0.000000 -0.000000 -0.896580 91.903000 0.326674 87.798100 -0.344508 3.521940 15.735700 0.000005 -0.000001 82.492300 85.380600 -82.047200 8.984550 -0.406207 -0.000000 1.398820 -1.231260 0.904411 16.377300 -0.000001 -0.000001 3.078370 -2.144410 0.468178 6.456720 -0.000001 -0.000000 4.727470 -1.419110 -0.635066 12.994200 -0.242716 4.980390 -90.012800 0.040059 -72.253000 5.348090 -0.000007 -0.000001 -67.420200 35.951300 -13.891400 24.328600 0.000019 0.000005 2.545250 5.388260 -25.331400 22.291600 -0.000001 0.000005 3.990400 5.550170 -8.713790 12.994500 -0.242716 -4.980390 88.048400 5.819360 -71.424100 -5.348130 -0.000001 -0.000004 -66.759800 34.148400 -13.894300 -24.328900 0.000322 -0.000009 -0.493751 -1.304990 -20.686100 -22.291500 -0.000108 -0.000004 8.863440 5.515980 -7.191590 -2.192480 -6.469440 -0.000000 -168.550000 -17.603400 -2.272170 39.081100 -0.000007 -0.000012 -0.201559 0.489291 22.389100 40.985400 -0.000006 -0.000013 -7.303080 -1.419810 -64.238600 11.754300 -0.000000 0.000003 -0.000116 -0.001172 -16.622400 -2.192510 6.469440 -0.000001 173.478000 23.085000 -179.255000 -39.081100 -0.002282 -0.040193 -0.065264 0.194088 19.462200 -40.985400 0.000008 0.000006 -4.635510 1.518200 -63.908800 -11.754300 -0.000006 -0.000006 -0.002699 -0.037152 -18.083900
0.000000 0.000000 0.000000 0.000000 0.000000 -0.000000 -0.887162 91.923300 0.274068 87.845700 -0.323247 3.405940 15.735700 0.000005 -0.000001 82.398200 85.413400 -81.965500 8.984550 -0.406207 -0.000000 1.331710 -1.237210 0.879075 16.377300 -0.000001 -0.000001 2.727340 -2.163340 0.458537 6.456720 -0.000001 -0.000000 4.538770 -1.469800 -0.515740 12.994200 -0.242716 4.980390 -90.024100 0.074823 -72.123100 5.348090 -0.000007 -0.000001 -67.343700 33.268600 -13.460600 24.328600 0.000019 0.000005 2.607650 5.377280 -25.918700 22.291600 -0.000001 0.000005 4.511530 5.553320 -8.863470 12.994500 -0.242716 -4.980390 88.062800 5.727170 -71.276900 -5.348130 -0.000001 -0.000004 -66.995000 31.758400 -13.462600 -24.328900 0.000322 -0.000009 -0.579704 -1.497140 -21.134300 -22.291500 -0.000108 -0.000004 9.837620 5.519110 -7.323700 -2.192480 -6.469440 -0.000000 -168.649000 -17.688400 -2.368920 39.081100 -0.000007 -0.000012 -0.198318 0.484660 22.254200 40.985400 -0.000006 -0.000013 -7.263620 -1.362500 -64.125100 11.754300 -0.000000 0.000003 -0.000099 -0.001024 -16.616800 -2.192510 6.469440 -0.000001 173.508000 23.088100 -179.413000 -39.081100 -0.002282 -0.040193 -0.061591 0.184048 19.427600 -40.985400 0.000008 0.000006 -4.527970 1.480410 -63.858400 -11.754300 -0.000006 -0.000006 -0.002672 -0.036837 -18.071100
0.000000 0.000000 0.000000 0.000000 0.000000 -0.000000 -0.895290 91.938300 0.224520 87.863200 -0.287353 3.348090 15.735700 0.000005 -0.000001 82.282200 85.445400 -81.849900 8.984550 -0.406207 -0.000000 1.265920 -1.247280 0.877612 16.377300 -0.000001 -0.000001 2.441760 -2.215760 0.474483 6.456720 -0.000001 -0.000000 4.206690 -1.527920 -0.465021 12.994200 -0.242716 4.980390 -90.030100 0.092294 -71.954100 5.348090 -0.000007 -0.000001 -66.618600 30.205200 -13.339800 24.328600 0.000019 0.000005 2.525900 5.113500 -26.332400 22.291600 -0.000001 0.000005 5.221900 5.557430 -9.061530 12.994500 -0.242716 -4.980390 88.087900 5.579350 -71.048300 -5.348130 -0.000001 -0.000004 -66.745700 29.071700 -13.373400 -24.328900 0.000322 -0.000009 -0.663151 -1.701820 -21.262100 -22.291500 -0.000108 -0.000004 10.964400 5.522500 -7.468950 -2.192480 -6.469440 -0.000000 -168.707000 -17.649300 -2.435310 39.081100 -0.000007 -0.000012 -0.195278 0.479309 22.167100 40.985400 -0.000006 -0.000013 -7.251940 -1.386200 -64.046100 11.754300 -0.000000 0.000003 -0.000124 -0.001236 -16.624700 -2.192510 6.469440 -0.000001 173.543000 23.105000 -179.483000 -39.081100 -0.002282 -0.040193 -0.058495 0.175767 19.376900 -40.985400 0.000008 0.000006 -4.487040 1.447110 -63.811300 -11.754300 -0.000006 -0.000006 -0.002699 -0.037148 -18.083800
0.000000 0.000000 0.000000 0.000000 0.000000 -0.000000 -0.917071 91.947700 0.173994 87.805300 -0.250783 3.182710 15.735700 0.000005 -0.000001 82.090600 85.507200 -81.644300 8.984550 -0.406207 -0.000000 1.139520 -1.261750 0.904359 16.377300 -0.000001 -0.000001 1.960160 -2.275000 0.539172 6.456720 -0.000001 -0.000000 3.978870 -1.631990 -0.415138 12.994200 -0.242716 4.980390 -90.026100 0.079275 -71.805100 5.348090 -0.000007 -0.000001 -64.994800 27.047300 -13.765600 24.328600 0.000019 0.000005 2.489140 5.022230 -26.407300 22.291600 -0.000001 0.000005 6.102060 5.561130 -9.242620 12.994500 -0.242716 -4.980390 88.093700 5.510010 -70.881700 -5.348130 -0.000001 -0.000004 -65.740500 26.166500 -13.681100 -24.328900 0.000322 -0.000009 -0.613640 -1.581760 -21.173400 -22.291500 -0.000108 -0.000004 11.984400 5.520700 -7.392700 -2.192480 -6.469440 -0.000000 -168.695000 -17.616200 -2.647490 39.081100 -0.000007 -0.000012 -0.194541 0.477859 22.151900 40.985400 -0.000006 -0.000013 -7.254190 -1.350750 -63.997500 11.754300 -0.000000 0.000003 -0.000111 -0.001125 -16.620600 -2.192510 6.469440 -0.000001 173.730000 23.117900 -179.702000 -39.081100 -0.002282 -0.040193 -0.056912 0.171520 19.350300 -40.985400 0.000008 0.000006 -4.410150 1.333580 -63.769400 -11.754300 -0.000006 -0.000006 -0.002877 -0.039202 -18.167400
